<svg id="visual" viewBox="0 0 960 240" width="960" height="240" xmlns="http://www.w3.org/2000/svg" xmlns:xlink="http://www.w3.org/1999/xlink" version="1.1"><path d="M0 195L26.7 195.2C53.3 195.3 106.7 195.7 160 192.3C213.3 189 266.7 182 320 181.5C373.3 181 426.7 187 480 189.3C533.3 191.7 586.7 190.3 640 189.2C693.3 188 746.7 187 800 187.3C853.3 187.7 906.7 189.3 933.3 190.2L960 191L960 0L933.3 0C906.7 0 853.3 0 800 0C746.7 0 693.3 0 640 0C586.7 0 533.3 0 480 0C426.7 0 373.3 0 320 0C266.7 0 213.3 0 160 0C106.7 0 53.3 0 26.7 0L0 0Z" fill="#212dd8"></path><path d="M0 139L26.7 142.3C53.3 145.7 106.7 152.3 160 156.3C213.3 160.3 266.7 161.7 320 160.8C373.3 160 426.7 157 480 153.3C533.3 149.7 586.7 145.3 640 142.7C693.3 140 746.7 139 800 138.3C853.3 137.7 906.7 137.3 933.3 137.2L960 137L960 0L933.3 0C906.7 0 853.3 0 800 0C746.7 0 693.3 0 640 0C586.7 0 533.3 0 480 0C426.7 0 373.3 0 320 0C266.7 0 213.3 0 160 0C106.7 0 53.3 0 26.7 0L0 0Z" fill="#ab00b5"></path><path d="M0 128L26.7 126C53.3 124 106.7 120 160 119.3C213.3 118.7 266.7 121.3 320 124C373.3 126.7 426.7 129.3 480 128.7C533.3 128 586.7 124 640 120.3C693.3 116.7 746.7 113.3 800 111.5C853.3 109.7 906.7 109.3 933.3 109.2L960 109L960 0L933.3 0C906.7 0 853.3 0 800 0C746.7 0 693.3 0 640 0C586.7 0 533.3 0 480 0C426.7 0 373.3 0 320 0C266.7 0 213.3 0 160 0C106.7 0 53.3 0 26.7 0L0 0Z" fill="#e1008e"></path><path d="M0 87L26.7 87.2C53.3 87.3 106.7 87.7 160 86.8C213.3 86 266.7 84 320 84.7C373.3 85.3 426.7 88.7 480 90.5C533.3 92.3 586.7 92.7 640 91C693.3 89.3 746.7 85.7 800 86.7C853.3 87.7 906.7 93.3 933.3 96.2L960 99L960 0L933.3 0C906.7 0 853.3 0 800 0C746.7 0 693.3 0 640 0C586.7 0 533.3 0 480 0C426.7 0 373.3 0 320 0C266.7 0 213.3 0 160 0C106.7 0 53.3 0 26.7 0L0 0Z" fill="#fb0369"></path><path d="M0 69L26.7 66.2C53.3 63.3 106.7 57.7 160 56.8C213.3 56 266.7 60 320 61.3C373.3 62.7 426.7 61.3 480 61.3C533.3 61.3 586.7 62.7 640 61.5C693.3 60.3 746.7 56.7 800 57C853.3 57.3 906.7 61.7 933.3 63.8L960 66L960 0L933.3 0C906.7 0 853.3 0 800 0C746.7 0 693.3 0 640 0C586.7 0 533.3 0 480 0C426.7 0 373.3 0 320 0C266.7 0 213.3 0 160 0C106.7 0 53.3 0 26.7 0L0 0Z" fill="#ff3141"></path><path d="M0 36L26.7 34.3C53.3 32.7 106.7 29.3 160 27.5C213.3 25.7 266.7 25.3 320 25.2C373.3 25 426.7 25 480 26.5C533.3 28 586.7 31 640 32C693.3 33 746.7 32 800 30.8C853.3 29.7 906.7 28.3 933.3 27.7L960 27L960 0L933.3 0C906.7 0 853.3 0 800 0C746.7 0 693.3 0 640 0C586.7 0 533.3 0 480 0C426.7 0 373.3 0 320 0C266.7 0 213.3 0 160 0C106.7 0 53.3 0 26.7 0L0 0Z" fill="#ff5a00"></path></svg>