<svg id="visual" viewBox="0 0 960 240" width="960" height="240" xmlns="http://www.w3.org/2000/svg" xmlns:xlink="http://www.w3.org/1999/xlink" version="1.1"><path d="M0 45L32 49.5C64 54 128 63 192 63.7C256 64.3 320 56.7 384 53C448 49.3 512 49.7 576 52.3C640 55 704 60 768 64.5C832 69 896 73 928 75L960 77L960 241L928 241C896 241 832 241 768 241C704 241 640 241 576 241C512 241 448 241 384 241C320 241 256 241 192 241C128 241 64 241 32 241L0 241Z" fill="#212dd8"></path><path d="M0 73L32 74.7C64 76.3 128 79.7 192 82.2C256 84.7 320 86.3 384 89.7C448 93 512 98 576 100.3C640 102.7 704 102.3 768 97.2C832 92 896 82 928 77L960 72L960 241L928 241C896 241 832 241 768 241C704 241 640 241 576 241C512 241 448 241 384 241C320 241 256 241 192 241C128 241 64 241 32 241L0 241Z" fill="#ab00b5"></path><path d="M0 125L32 125.3C64 125.7 128 126.3 192 122.7C256 119 320 111 384 108.5C448 106 512 109 576 111.7C640 114.3 704 116.7 768 119.8C832 123 896 127 928 129L960 131L960 241L928 241C896 241 832 241 768 241C704 241 640 241 576 241C512 241 448 241 384 241C320 241 256 241 192 241C128 241 64 241 32 241L0 241Z" fill="#e1008e"></path><path d="M0 141L32 140.7C64 140.3 128 139.7 192 141.3C256 143 320 147 384 149.3C448 151.7 512 152.3 576 151C640 149.7 704 146.3 768 143.3C832 140.3 896 137.7 928 136.3L960 135L960 241L928 241C896 241 832 241 768 241C704 241 640 241 576 241C512 241 448 241 384 241C320 241 256 241 192 241C128 241 64 241 32 241L0 241Z" fill="#fb0369"></path><path d="M0 167L32 168.2C64 169.3 128 171.7 192 172.2C256 172.7 320 171.3 384 170.3C448 169.3 512 168.7 576 167.7C640 166.7 704 165.3 768 166.5C832 167.7 896 171.3 928 173.2L960 175L960 241L928 241C896 241 832 241 768 241C704 241 640 241 576 241C512 241 448 241 384 241C320 241 256 241 192 241C128 241 64 241 32 241L0 241Z" fill="#ff3141"></path><path d="M0 207L32 205.3C64 203.7 128 200.3 192 201C256 201.7 320 206.3 384 208C448 209.7 512 208.3 576 208.7C640 209 704 211 768 209.8C832 208.7 896 204.3 928 202.2L960 200L960 241L928 241C896 241 832 241 768 241C704 241 640 241 576 241C512 241 448 241 384 241C320 241 256 241 192 241C128 241 64 241 32 241L0 241Z" fill="#ff5a00"></path></svg>